<svg width="193" height="132" viewBox="0 0 193 132" fill="none" xmlns="http://www.w3.org/2000/svg">
<path d="M46.8534 3.42973C46.94 4.61308 46.5686 7.08791 45.7392 10.8542C45.2145 11.4127 43.1942 12.2547 39.6783 13.38C36.61 14.3588 34.3516 14.9679 32.9031 15.2072L31.7198 15.2938L31.5617 14.6667C31.2281 13.3064 31.5167 11.0993 32.4275 8.04537C33.4821 7.39931 35.732 6.51944 39.1773 5.40578C42.4518 4.35663 44.8132 3.71239 46.2617 3.47306L46.8534 3.42973ZM61.015 48.9418L51.4479 51.9925L50.8212 51.8238C50.4927 50.9345 50.1657 49.065 49.84 46.2154C49.5549 43.8309 49.057 42.0259 48.3465 40.8005C47.9683 41.8066 47.5994 42.539 47.2396 42.9976C41.6851 45.4034 38.0953 46.7406 36.4702 47.0091C33.7853 47.4528 31.8166 47.1792 30.5641 46.1885C29.3116 45.1978 28.4606 43.3423 28.0112 40.622C27.8477 39.6328 28.4338 37.2495 29.7695 33.4722C31.2056 29.4241 33.1907 26.3923 35.7248 24.3767C38.2589 22.3611 41.6809 20.9972 45.991 20.2851C47.1215 20.0983 47.9721 20.0847 48.5429 20.2445C49.9976 23.9963 51.8455 30.6773 54.0867 40.2876L54.4397 40.447L59.3864 39.0852L61.015 48.9418ZM47.0506 32.9576L46.4455 29.9546C45.8689 29.7595 45.2626 29.7145 44.6267 29.8196C42.4717 30.1757 40.2366 30.9261 37.9216 32.0707C35.0704 33.4854 33.3877 34.943 32.8735 36.4434C33.2431 37.3622 34.5937 37.629 36.9254 37.2437C40.3169 36.6833 43.5298 35.4811 46.564 33.6369L47.0506 32.9576ZM89.7369 44.196C84.1535 46.2074 79.0655 47.5925 74.4728 48.3513C72.9184 48.6082 71.9324 48.5715 71.5149 48.2412L71.3744 47.7201C71.2103 47.1665 71.3005 45.8451 71.6448 43.7558C68.9761 45.1766 64.2671 47.0979 57.5175 49.5197L55.8889 39.6631C59.2223 38.5317 65.6424 35.9828 75.149 32.0167C75.9564 31.4115 77.2262 30.5303 78.9585 29.373L79.117 29.6735C79.1456 30.2857 78.5807 32.2481 77.4222 35.5607C77.5743 36.2615 78.6425 36.466 80.6267 36.1745C83.3881 35.7545 85.8849 35.1605 88.117 34.3924L89.7369 44.196ZM81.0464 58.153C80.4535 61.1544 79.5135 64.0317 78.2264 66.7848L78.0319 66.9258C75.0947 66.7216 72.791 66.0679 71.1207 64.9648L71.0857 64.7528C70.9806 64.1169 71.28 62.6339 71.9837 60.3037C72.6875 57.9736 73.2575 56.591 73.6937 56.156C74.4356 56.0334 75.6833 56.2265 77.4369 56.7352C79.0786 57.226 80.2817 57.6987 81.0464 58.153ZM116.95 38.883L103.097 43.676C102.891 43.7464 102.682 43.7991 102.47 43.8341C101.022 44.0734 99.4279 43.1028 97.6885 40.9223L96.9996 41.0362C96.1164 41.1821 92.5297 42.428 86.2394 44.7739L84.6108 34.9173C84.9229 34.8295 86.6869 34.1932 89.9026 33.0086C91.5812 32.4046 92.5888 31.6937 92.9255 30.8759C92.5264 29.9983 92.116 28.8321 91.6942 27.3775C92.4824 23.5817 93.331 20.8103 94.24 19.0632C95.4181 18.5056 96.6077 18.1276 97.8089 17.9291C103.073 17.0593 106.052 18.7265 106.747 22.9305C107.027 24.6263 106.872 26.2125 106.281 27.6893C105.944 28.5071 105.315 29.972 104.394 32.084C104.629 32.4081 104.941 32.538 105.329 32.4738C106.213 32.3279 109.543 31.1788 115.321 29.0264L116.95 38.883ZM156.302 15.7767C156.195 16.8833 155.513 20.0082 154.258 25.1514L124.07 36.1821C123.107 38.7003 121.478 42.3448 119.181 47.1157L118.987 46.93L120.466 37.4309C118.882 38.1646 116.764 39.077 114.113 40.1682L112.476 30.2586C114.791 29.3318 118.596 27.8683 123.891 25.8684C125.227 21.6554 126.975 17.7373 129.134 14.1141C132.114 9.08513 135.035 6.33424 137.896 5.86141C140.157 5.48781 143.437 7.10534 147.735 10.714C152.033 14.3226 154.889 16.0102 156.302 15.7767ZM141.337 46.1223C140.897 49.171 140.028 52.0366 138.729 54.7191C135.292 54.3435 132.917 53.7015 131.606 52.7931L131.571 52.5811C131.477 52.0159 131.785 50.5858 132.495 48.291C133.152 46.1138 133.677 44.6841 134.073 44.0018C134.815 43.8792 136.065 44.0899 137.825 44.634C139.431 45.1307 140.602 45.6268 141.337 46.1223ZM141.904 19.2445C141.523 18.0372 140.621 17.0793 139.197 16.371C137.803 15.6214 136.47 15.3517 135.199 15.5618C132.266 16.0464 129.56 19.1066 127.08 24.7426C130.366 23.5463 135.308 21.7136 141.904 19.2445Z" fill="#00C2FF" fill-opacity="0.5"/>
<path d="M52.7999 2.77765C52.8865 3.96099 52.5152 6.43583 51.6858 10.2022C51.1611 10.7607 49.1408 11.6026 45.6249 12.7279C42.5565 13.7067 40.2981 14.3158 38.8497 14.5551L37.6663 14.6418L37.5083 14.0146C37.1746 12.6543 37.4632 10.4472 38.374 7.39329C39.4286 6.74722 41.6786 5.86736 45.1238 4.7537C48.3983 3.70455 50.7598 3.06031 52.2082 2.82097L52.7999 2.77765ZM66.9616 48.2897L57.3944 51.3404L56.7677 51.1718C56.4393 50.2824 56.1122 48.4129 55.7866 45.5633C55.5014 43.1788 55.0036 41.3739 54.293 40.1484C53.9149 41.1545 53.5459 41.8869 53.1862 42.3456C47.6317 44.7514 44.0419 46.0885 42.4168 46.357C39.7318 46.8007 37.7631 46.5271 36.5106 45.5364C35.2581 44.5457 34.4072 42.6902 33.9577 39.9699C33.7942 38.9808 34.3803 36.5975 35.716 32.8201C37.1521 28.772 39.1372 25.7402 41.6713 23.7246C44.2054 21.709 47.6275 20.3451 51.9375 19.633C53.068 19.4462 53.9187 19.4327 54.4895 19.5924C55.9441 23.3442 57.792 30.0253 60.0332 39.6355L60.3862 39.7949L65.3329 38.4331L66.9616 48.2897ZM52.9971 32.3056L52.392 29.3025C51.8154 29.1074 51.2091 29.0624 50.5732 29.1675C48.4182 29.5236 46.1832 30.274 43.8681 31.4186C41.017 32.8334 39.3343 34.2909 38.82 35.7913C39.1896 36.7101 40.5402 36.9769 42.8719 36.5917C46.2634 36.0313 49.4763 34.829 52.5105 32.9848L52.9971 32.3056ZM95.6835 43.5439C90.1001 45.5553 85.012 46.9404 80.4194 47.6992C78.8649 47.9561 77.8789 47.9194 77.4615 47.5892L77.3209 47.068C77.1568 46.5144 77.247 45.193 77.5913 43.1037C74.9227 44.5245 70.2136 46.4459 63.4641 48.8676L61.8354 39.011C65.1689 37.8796 71.5889 35.3308 81.0956 31.3646C81.9029 30.7594 83.1727 29.8782 84.905 28.7209L85.0635 29.0214C85.0921 29.6336 84.5272 31.5961 83.3688 34.9086C83.5209 35.6094 84.589 35.8139 86.5732 35.5224C89.3347 35.1024 91.8315 34.5084 94.0636 33.7403L95.6835 43.5439ZM86.9929 57.5009C86.4 60.5023 85.46 63.3796 84.1729 66.1328L83.9784 66.2738C81.0413 66.0695 78.7375 65.4158 77.0673 64.3127L77.0322 64.1007C76.9272 63.4648 77.2265 61.9818 77.9303 59.6516C78.634 57.3215 79.204 55.9389 79.6403 55.5039C80.3822 55.3813 81.6299 55.5744 83.3834 56.0831C85.0251 56.574 86.2283 57.0466 86.9929 57.5009ZM122.896 38.2309L109.044 43.0239C108.838 43.0943 108.629 43.147 108.417 43.182C106.968 43.4213 105.374 42.4508 103.635 40.2703L102.946 40.3841C102.063 40.53 98.4762 41.7759 92.186 44.1218L90.5573 34.2652C90.8694 34.1774 92.6334 33.5411 95.8492 32.3565C97.5277 31.7525 98.5353 31.0416 98.872 30.2239C98.473 29.3462 98.0625 28.1801 97.6407 26.7255C98.4289 22.9296 99.2775 20.1582 100.187 18.4111C101.365 17.8535 102.554 17.4755 103.755 17.277C109.019 16.4072 111.999 18.0744 112.693 22.2785C112.973 23.9742 112.818 25.5605 112.227 27.0372C111.891 27.855 111.262 29.3199 110.341 31.4319C110.576 31.756 110.887 31.886 111.276 31.8217C112.159 31.6758 115.49 30.5267 121.268 28.3743L122.896 38.2309ZM162.249 15.1246C162.141 16.2312 161.46 19.3561 160.205 24.4993L130.017 35.53C129.054 38.0482 127.424 41.6927 125.128 46.4636L124.934 46.2779L126.413 36.7789C124.828 37.5125 122.71 38.4249 120.06 39.5161L118.423 29.6066C120.737 28.6797 124.542 27.2163 129.837 25.2163C131.173 21.0033 132.921 17.0852 135.081 13.462C138.061 8.43305 140.981 5.68215 143.843 5.20932C146.104 4.83573 149.384 6.45326 153.682 10.0619C157.98 13.6706 160.835 15.3581 162.249 15.1246ZM147.283 45.4702C146.844 48.5189 145.974 51.3845 144.675 54.0671C141.238 53.6914 138.864 53.0494 137.552 52.141L137.517 51.929C137.424 51.3638 137.732 49.9337 138.442 47.6389C139.098 45.4618 139.624 44.032 140.019 43.3497C140.761 43.2271 142.012 43.4379 143.771 43.9819C145.378 44.4786 146.548 44.9747 147.283 45.4702ZM147.851 18.5924C147.47 17.3851 146.568 16.4273 145.144 15.7189C143.75 14.9693 142.417 14.6996 141.145 14.9098C138.213 15.3943 135.507 18.4545 133.026 24.0905C136.313 22.8942 141.254 21.0615 147.851 18.5924Z" fill="#FF00D6" fill-opacity="0.5"/>
<path d="M49.8266 3.10368C49.9133 4.28703 49.5419 6.76186 48.7125 10.5282C48.1878 11.0867 46.1675 11.9286 42.6516 13.0539C39.5833 14.0327 37.3249 14.6418 35.8764 14.8811L34.6931 14.9678L34.535 14.3406C34.2013 12.9803 34.4899 10.7732 35.4007 7.71932C36.4554 7.07326 38.7053 6.19339 42.1506 5.07973C45.425 4.03058 47.7865 3.38634 49.235 3.14701L49.8266 3.10368ZM63.9883 48.6158L54.4211 51.6664L53.7944 51.4978C53.466 50.6084 53.139 48.739 52.8133 45.8894C52.5282 43.5049 52.0303 41.6999 51.3197 40.4745C50.9416 41.4806 50.5726 42.2129 50.2129 42.6716C44.6584 45.0774 41.0686 46.4145 39.4435 46.6831C36.7586 47.1267 34.7898 46.8532 33.5374 45.8625C32.2849 44.8718 31.4339 43.0163 30.9844 40.296C30.821 39.3068 31.4071 36.9235 32.7427 33.1461C34.1789 29.0981 36.164 26.0663 38.698 24.0507C41.2321 22.0351 44.6542 20.6712 48.9643 19.959C50.0948 19.7722 50.9454 19.7587 51.5162 19.9184C52.9709 23.6703 54.8188 30.3513 57.06 39.9615L57.413 40.1209L62.3597 38.7592L63.9883 48.6158ZM50.0238 32.6316L49.4188 29.6285C48.8421 29.4335 48.2359 29.3885 47.6 29.4935C45.4449 29.8496 43.2099 30.6 40.8948 31.7447C38.0437 33.1594 36.361 34.6169 35.8468 36.1173C36.2163 37.0362 37.567 37.303 39.8986 36.9177C43.2902 36.3573 46.503 35.155 49.5372 33.3108L50.0238 32.6316ZM92.7102 43.87C87.1268 45.8813 82.0388 47.2664 77.4461 48.0253C75.8917 48.2821 74.9057 48.2454 74.4882 47.9152L74.3476 47.394C74.1836 46.8404 74.2737 45.519 74.6181 43.4297C71.9494 44.8506 67.2403 46.7719 60.4908 49.1937L58.8622 39.3371C62.1956 38.2056 68.6157 35.6568 78.1223 31.6907C78.9296 31.0855 80.1994 30.2042 81.9317 29.047L82.0903 29.3474C82.1188 29.9597 81.5539 31.9221 80.3955 35.2347C80.5476 35.9354 81.6157 36.14 83.6 35.8484C86.3614 35.4284 88.8582 34.8344 91.0903 34.0664L92.7102 43.87ZM84.0196 57.827C83.4268 60.8283 82.4868 63.7056 81.1996 66.4588L81.0052 66.5998C78.068 66.3956 75.7643 65.7419 74.094 64.6387L74.059 64.4267C73.9539 63.7908 74.2532 62.3078 74.957 59.9777C75.6608 57.6475 76.2308 56.2649 76.667 55.8299C77.4089 55.7074 78.6566 55.9004 80.4101 56.4091C82.0518 56.9 83.255 57.3726 84.0196 57.827ZM119.923 38.5569L106.071 43.35C105.865 43.4203 105.656 43.473 105.444 43.508C103.995 43.7474 102.401 42.7768 100.662 40.5963L99.9729 40.7101C99.0897 40.8561 95.5029 42.102 89.2127 44.4479L87.5841 34.5913C87.8962 34.5034 89.6601 33.8672 92.8759 32.6825C94.5545 32.0786 95.5621 31.3677 95.8988 30.5499C95.4997 29.6722 95.0892 28.5061 94.6674 27.0515C95.4557 23.2557 96.3043 20.4842 97.2133 18.7372C98.3914 18.1796 99.581 17.8015 100.782 17.6031C106.046 16.7333 109.025 18.4004 109.72 22.6045C110 24.3003 109.845 25.8865 109.254 27.3632C108.918 28.181 108.289 29.6459 107.367 31.758C107.602 32.0821 107.914 32.212 108.303 32.1478C109.186 32.0018 112.516 30.8527 118.294 28.7004L119.923 38.5569ZM159.275 15.4507C159.168 16.5572 158.486 19.6821 157.231 24.8253L127.044 35.8561C126.081 38.3742 124.451 42.0187 122.154 46.7896L121.96 46.6039L123.439 37.1049C121.855 37.8385 119.737 38.7509 117.087 39.8422L115.449 29.9326C117.764 29.0057 121.569 27.5423 126.864 25.5423C128.2 21.3293 129.948 17.4112 132.108 13.788C135.087 8.75908 138.008 6.00819 140.87 5.53536C143.131 5.16176 146.41 6.77929 150.708 10.3879C155.007 13.9966 157.862 15.6842 159.275 15.4507ZM144.31 45.7963C143.87 48.845 143.001 51.7106 141.702 54.3931C138.265 54.0174 135.89 53.3754 134.579 52.467L134.544 52.2551C134.451 51.6898 134.759 50.2598 135.468 47.965C136.125 45.7878 136.651 44.3581 137.046 43.6758C137.788 43.5532 139.039 43.7639 140.798 44.3079C142.404 44.8047 143.575 45.3008 144.31 45.7963ZM144.878 18.9184C144.497 17.7111 143.594 16.7533 142.171 16.0449C140.777 15.2954 139.444 15.0257 138.172 15.2358C135.24 15.7203 132.533 18.7805 130.053 24.4165C133.339 23.2202 138.281 21.3875 144.878 18.9184Z" fill="white"/>
<path d="M186.127 34.5312L180.127 27.5312L167.127 46.0312C165.127 49.2312 159.294 52.0312 156.627 53.0312C143.827 57.0312 132.294 59.3645 128.127 60.0312L126.127 61.0312L102.127 97.0312L108.127 66.0312L15.6274 90.0312L13.6274 105.031L90.6274 84.0312V85.0312L82.6274 128.031L95.6274 131.031L133.627 72.5312H134.627C142.627 71.0312 155.127 67.0312 163.127 63.5312C169.527 60.7312 174.127 55.3645 175.627 53.0312L186.127 34.5312Z" fill="#00C2FF" fill-opacity="0.5"/>
<path d="M192.127 34.5312L186.127 27.5312L173.127 46.0312C171.127 49.2312 165.294 52.0312 162.627 53.0312C149.827 57.0312 138.294 59.3645 134.127 60.0312L132.127 61.0312L108.127 97.0312L114.127 66.0312L21.6274 90.0312L19.6274 105.031L96.6274 84.0312V85.0312L88.6274 128.031L101.627 131.031L139.627 72.5312H140.627C148.627 71.0312 161.127 67.0312 169.127 63.5312C175.527 60.7312 180.127 55.3645 181.627 53.0312L192.127 34.5312Z" fill="#FF00D6" fill-opacity="0.5"/>
<path d="M189.5 34.3217L183.5 27.3217L170.5 45.8217C168.5 49.0217 162.667 51.8217 160 52.8217C147.2 56.8217 135.667 59.155 131.5 59.8217L129.5 60.8217L105.5 96.8217L111.5 65.8217L19 89.8217L17 104.822L94 83.8217V84.8217L86 127.822L99 130.822L137 72.3217H138C146 70.8217 158.5 66.8217 166.5 63.3217C172.9 60.5217 177.5 55.155 179 52.8217L189.5 34.3217Z" fill="white"/>
</svg>
