<svg width="193" height="132" viewBox="0 0 193 132" fill="none" xmlns="http://www.w3.org/2000/svg">
<path d="M46.8534 4.10803C46.94 5.29138 46.5686 7.76621 45.7392 11.5325C45.2145 12.091 43.1942 12.933 39.6783 14.0583C36.61 15.0371 34.3516 15.6462 32.9031 15.8855L31.7198 15.9721L31.5617 15.345C31.2281 13.9847 31.5167 11.7776 32.4275 8.72367C33.4821 8.07761 35.732 7.19774 39.1773 6.08408C42.4518 5.03493 44.8132 4.39069 46.2617 4.15136L46.8534 4.10803ZM61.015 49.6201L51.4479 52.6708L50.8212 52.5021C50.4927 51.6128 50.1657 49.7433 49.84 46.8937C49.5549 44.5092 49.057 42.7042 48.3465 41.4788C47.9683 42.4849 47.5994 43.2173 47.2396 43.6759C41.6851 46.0817 38.0953 47.4189 36.4702 47.6874C33.7853 48.1311 31.8166 47.8575 30.5641 46.8668C29.3116 45.8761 28.4606 44.0206 28.0112 41.3003C27.8477 40.3111 28.4338 37.9278 29.7695 34.1505C31.2056 30.1024 33.1907 27.0706 35.7248 25.055C38.2589 23.0394 41.6809 21.6755 45.991 20.9634C47.1215 20.7766 47.9721 20.763 48.5429 20.9228C49.9976 24.6746 51.8455 31.3556 54.0867 40.9659L54.4397 41.1253L59.3864 39.7635L61.015 49.6201ZM47.0506 33.6359L46.4455 30.6329C45.8689 30.4378 45.2626 30.3928 44.6267 30.4979C42.4717 30.854 40.2366 31.6044 37.9216 32.749C35.0704 34.1637 33.3877 35.6213 32.8735 37.1217C33.2431 38.0405 34.5937 38.3073 36.9254 37.922C40.3169 37.3616 43.5298 36.1594 46.564 34.3152L47.0506 33.6359ZM89.7369 44.8743C84.1535 46.8857 79.0655 48.2708 74.4728 49.0296C72.9184 49.2865 71.9324 49.2498 71.5149 48.9195L71.3744 48.3984C71.2103 47.8448 71.3005 46.5234 71.6448 44.4341C68.9761 45.8549 64.2671 47.7762 57.5175 50.198L55.8889 40.3414C59.2223 39.21 65.6424 36.6611 75.149 32.695C75.9564 32.0898 77.2262 31.2086 78.9585 30.0513L79.117 30.3518C79.1456 30.964 78.5807 32.9264 77.4222 36.239C77.5743 36.9398 78.6425 37.1443 80.6267 36.8528C83.3881 36.4328 85.8849 35.8388 88.117 35.0707L89.7369 44.8743ZM81.0464 58.8313C80.4535 61.8327 79.5135 64.71 78.2264 67.4631L78.0319 67.6041C75.0947 67.3999 72.791 66.7462 71.1207 65.6431L71.0857 65.4311C70.9806 64.7952 71.28 63.3122 71.9837 60.982C72.6875 58.6519 73.2575 57.2693 73.6937 56.8343C74.4356 56.7117 75.6833 56.9048 77.4369 57.4135C79.0786 57.9043 80.2817 58.377 81.0464 58.8313ZM116.95 39.5613L103.097 44.3543C102.891 44.4247 102.682 44.4774 102.47 44.5124C101.022 44.7517 99.4279 43.7811 97.6885 41.6006L96.9996 41.7145C96.1164 41.8604 92.5297 43.1063 86.2394 45.4522L84.6108 35.5956C84.9229 35.5078 86.6869 34.8715 89.9026 33.6869C91.5812 33.0829 92.5888 32.372 92.9255 31.5542C92.5264 30.6766 92.116 29.5104 91.6942 28.0558C92.4824 24.26 93.331 21.4886 94.24 19.7415C95.4181 19.1839 96.6077 18.8059 97.8089 18.6074C103.073 17.7376 106.052 19.4048 106.747 23.6088C107.027 25.3046 106.872 26.8908 106.281 28.3676C105.944 29.1854 105.315 30.6503 104.394 32.7623C104.629 33.0864 104.941 33.2163 105.329 33.1521C106.213 33.0062 109.543 31.8571 115.321 29.7047L116.95 39.5613ZM156.302 16.455C156.195 17.5616 155.513 20.6865 154.258 25.8297L124.07 36.8604C123.107 39.3786 121.478 43.0231 119.181 47.794L118.987 47.6083L120.466 38.1092C118.882 38.8429 116.764 39.7553 114.113 40.8465L112.476 30.9369C114.791 30.0101 118.596 28.5466 123.891 26.5467C125.227 22.3337 126.975 18.4156 129.134 14.7924C132.114 9.76343 135.035 7.01253 137.896 6.53971C140.157 6.16611 143.437 7.78364 147.735 11.3923C152.033 15.0009 154.889 16.6885 156.302 16.455ZM141.337 46.8006C140.897 49.8493 140.028 52.7149 138.729 55.3974C135.292 55.0218 132.917 54.3798 131.606 53.4714L131.571 53.2594C131.477 52.6942 131.785 51.2641 132.495 48.9693C133.152 46.7921 133.677 45.3624 134.073 44.6801C134.815 44.5575 136.065 44.7682 137.825 45.3123C139.431 45.809 140.602 46.3051 141.337 46.8006ZM141.904 19.9228C141.523 18.7155 140.621 17.7576 139.197 17.0493C137.803 16.2997 136.47 16.03 135.199 16.2401C132.266 16.7247 129.56 19.7849 127.08 25.4209C130.366 24.2246 135.308 22.3919 141.904 19.9228Z" fill="#00C2FF" fill-opacity="0.5"/>
<path d="M52.7998 3.45595C52.8865 4.63929 52.5151 7.11413 51.6857 10.8805C51.161 11.439 49.1407 12.2809 45.6248 13.4062C42.5565 14.385 40.2981 14.9941 38.8496 15.2334L37.6663 15.3201L37.5082 14.6929C37.1746 13.3326 37.4631 11.1255 38.3739 8.07159C39.4286 7.42552 41.6785 6.54566 45.1238 5.432C48.3982 4.38285 50.7597 3.73861 52.2082 3.49927L52.7998 3.45595ZM66.9615 48.968L57.3943 52.0187L56.7676 51.8501C56.4392 50.9607 56.1122 49.0912 55.7865 46.2416C55.5014 43.8571 55.0035 42.0522 54.2929 40.8267C53.9148 41.8328 53.5458 42.5652 53.1861 43.0239C47.6316 45.4297 44.0418 46.7668 42.4167 47.0353C39.7318 47.479 37.7631 47.2054 36.5106 46.2147C35.2581 45.224 34.4071 43.3685 33.9576 40.6482C33.7942 39.6591 34.3803 37.2758 35.7159 33.4984C37.1521 29.4503 39.1372 26.4185 41.6713 24.4029C44.2053 22.3873 47.6274 21.0234 51.9375 20.3113C53.068 20.1245 53.9186 20.111 54.4894 20.2707C55.9441 24.0225 57.792 30.7036 60.0332 40.3138L60.3862 40.4732L65.3329 39.1114L66.9615 48.968ZM52.997 32.9839L52.392 29.9808C51.8153 29.7857 51.2091 29.7407 50.5732 29.8458C48.4181 30.2019 46.1831 30.9523 43.868 32.0969C41.0169 33.5117 39.3342 34.9692 38.82 36.4696C39.1896 37.3884 40.5402 37.6552 42.8718 37.2699C46.2634 36.7096 49.4762 35.5073 52.5104 33.6631L52.997 32.9839ZM95.6834 44.2222C90.1 46.2336 85.012 47.6187 80.4193 48.3775C78.8649 48.6344 77.8789 48.5977 77.4614 48.2675L77.3208 47.7463C77.1568 47.1927 77.2469 45.8713 77.5913 43.782C74.9226 45.2028 70.2135 47.1242 63.464 49.5459L61.8354 39.6893C65.1688 38.5579 71.5889 36.0091 81.0955 32.0429C81.9028 31.4377 83.1726 30.5565 84.9049 29.3992L85.0635 29.6997C85.092 30.3119 84.5271 32.2743 83.3687 35.5869C83.5208 36.2877 84.5889 36.4922 86.5732 36.2007C89.3346 35.7807 91.8314 35.1867 94.0635 34.4186L95.6834 44.2222ZM86.9928 58.1792C86.4 61.1806 85.46 64.0579 84.1728 66.8111L83.9784 66.9521C81.0412 66.7478 78.7375 66.0941 77.0672 64.991L77.0322 64.779C76.9271 64.1431 77.2264 62.6601 77.9302 60.3299C78.634 57.9998 79.204 56.6172 79.6402 56.1822C80.3821 56.0596 81.6298 56.2527 83.3833 56.7614C85.025 57.2523 86.2282 57.7249 86.9928 58.1792ZM122.896 38.9092L109.044 43.7022C108.838 43.7726 108.629 43.8253 108.417 43.8603C106.968 44.0996 105.374 43.1291 103.635 40.9486L102.946 41.0624C102.063 41.2083 98.4762 42.4542 92.1859 44.8001L90.5573 34.9435C90.8694 34.8557 92.6333 34.2194 95.8491 33.0348C97.5277 32.4308 98.5353 31.7199 98.872 30.9022C98.4729 30.0245 98.0625 28.8584 97.6406 27.4038C98.4289 23.6079 99.2775 20.8365 100.186 19.0894C101.365 18.5318 102.554 18.1538 103.755 17.9553C109.019 17.0855 111.999 18.7527 112.693 22.9568C112.973 24.6525 112.818 26.2388 112.227 27.7155C111.891 28.5333 111.262 29.9982 110.34 32.1102C110.576 32.4343 110.887 32.5643 111.276 32.5C112.159 32.3541 115.49 31.205 121.268 29.0526L122.896 38.9092ZM162.249 15.8029C162.141 16.9095 161.46 20.0344 160.205 25.1776L130.017 36.2083C129.054 38.7265 127.424 42.371 125.127 47.1419L124.933 46.9562L126.413 37.4572C124.828 38.1908 122.71 39.1032 120.06 40.1944L118.423 30.2849C120.737 29.358 124.542 27.8946 129.837 25.8946C131.173 21.6816 132.921 17.7635 135.081 14.1403C138.061 9.11135 140.981 6.36045 143.843 5.88762C146.104 5.51403 149.383 7.13156 153.682 10.7402C157.98 14.3489 160.835 16.0364 162.249 15.8029ZM147.283 46.1485C146.844 49.1972 145.974 52.0628 144.675 54.7454C141.238 54.3697 138.864 53.7277 137.552 52.8193L137.517 52.6073C137.424 52.0421 137.732 50.612 138.442 48.3172C139.098 46.1401 139.624 44.7103 140.019 44.028C140.761 43.9054 142.012 44.1162 143.771 44.6602C145.378 45.1569 146.548 45.653 147.283 46.1485ZM147.851 19.2707C147.47 18.0634 146.567 17.1056 145.144 16.3972C143.75 15.6476 142.417 15.3779 141.145 15.5881C138.213 16.0726 135.507 19.1328 133.026 24.7688C136.313 23.5725 141.254 21.7398 147.851 19.2707Z" fill="#FF00D6" fill-opacity="0.5"/>
<path d="M49.8266 3.78198C49.9133 4.96533 49.5419 7.44016 48.7125 11.2065C48.1878 11.765 46.1675 12.6069 42.6516 13.7322C39.5833 14.711 37.3249 15.3201 35.8764 15.5594L34.6931 15.6461L34.535 15.0189C34.2013 13.6586 34.4899 11.4515 35.4007 8.39762C36.4554 7.75156 38.7053 6.87169 42.1506 5.75803C45.425 4.70888 47.7865 4.06464 49.235 3.82531L49.8266 3.78198ZM63.9883 49.2941L54.4211 52.3447L53.7944 52.1761C53.466 51.2867 53.139 49.4173 52.8133 46.5677C52.5282 44.1831 52.0303 42.3782 51.3197 41.1528C50.9416 42.1589 50.5726 42.8912 50.2129 43.3499C44.6584 45.7557 41.0686 47.0928 39.4435 47.3614C36.7586 47.805 34.7898 47.5315 33.5374 46.5408C32.2849 45.55 31.4339 43.6946 30.9844 40.9743C30.821 39.9851 31.4071 37.6018 32.7427 33.8244C34.1789 29.7764 36.164 26.7445 38.698 24.729C41.2321 22.7134 44.6542 21.3495 48.9643 20.6373C50.0948 20.4505 50.9454 20.437 51.5162 20.5967C52.9709 24.3486 54.8188 31.0296 57.06 40.6398L57.413 40.7992L62.3597 39.4375L63.9883 49.2941ZM50.0238 33.3099L49.4188 30.3068C48.8421 30.1118 48.2359 30.0668 47.6 30.1718C45.4449 30.5279 43.2099 31.2783 40.8948 32.423C38.0437 33.8377 36.361 35.2952 35.8468 36.7956C36.2163 37.7145 37.567 37.9813 39.8986 37.596C43.2902 37.0356 46.503 35.8333 49.5372 33.9891L50.0238 33.3099ZM92.7102 44.5483C87.1268 46.5596 82.0388 47.9447 77.4461 48.7036C75.8917 48.9604 74.9057 48.9237 74.4882 48.5935L74.3476 48.0723C74.1836 47.5187 74.2737 46.1973 74.6181 44.108C71.9494 45.5289 67.2403 47.4502 60.4908 49.872L58.8622 40.0154C62.1956 38.8839 68.6157 36.3351 78.1223 32.369C78.9296 31.7638 80.1994 30.8825 81.9317 29.7253L82.0903 30.0257C82.1188 30.638 81.5539 32.6004 80.3955 35.913C80.5476 36.6137 81.6157 36.8183 83.6 36.5267C86.3614 36.1067 88.8582 35.5127 91.0903 34.7447L92.7102 44.5483ZM84.0196 58.5053C83.4268 61.5066 82.4868 64.3839 81.1996 67.1371L81.0052 67.2781C78.068 67.0739 75.7643 66.4202 74.094 65.317L74.059 65.105C73.9539 64.4691 74.2532 62.9861 74.957 60.656C75.6608 58.3258 76.2308 56.9432 76.667 56.5082C77.4089 56.3857 78.6566 56.5787 80.4101 57.0874C82.0518 57.5783 83.255 58.0509 84.0196 58.5053ZM119.923 39.2352L106.071 44.0283C105.865 44.0986 105.656 44.1513 105.444 44.1863C103.995 44.4257 102.401 43.4551 100.662 41.2746L99.9729 41.3884C99.0897 41.5344 95.5029 42.7803 89.2127 45.1262L87.5841 35.2696C87.8962 35.1817 89.6601 34.5455 92.8759 33.3608C94.5545 32.7569 95.5621 32.046 95.8988 31.2282C95.4997 30.3505 95.0892 29.1844 94.6674 27.7298C95.4557 23.934 96.3043 21.1625 97.2133 19.4154C98.3914 18.8579 99.581 18.4798 100.782 18.2814C106.046 17.4116 109.025 19.0787 109.72 23.2828C110 24.9786 109.845 26.5648 109.254 28.0415C108.918 28.8593 108.289 30.3242 107.367 32.4363C107.602 32.7604 107.914 32.8903 108.303 32.8261C109.186 32.6801 112.516 31.531 118.294 29.3787L119.923 39.2352ZM159.275 16.129C159.168 17.2355 158.486 20.3604 157.231 25.5036L127.044 36.5344C126.081 39.0525 124.451 42.697 122.154 47.4679L121.96 47.2822L123.439 37.7832C121.855 38.5168 119.737 39.4292 117.087 40.5205L115.449 30.6109C117.764 29.684 121.569 28.2206 126.864 26.2206C128.2 22.0076 129.948 18.0895 132.108 14.4663C135.087 9.43738 138.008 6.68648 140.87 6.21366C143.131 5.84006 146.41 7.45759 150.708 11.0662C155.007 14.6749 157.862 16.3625 159.275 16.129ZM144.31 46.4746C143.87 49.5233 143.001 52.3889 141.702 55.0714C138.265 54.6957 135.89 54.0537 134.579 53.1453L134.544 52.9334C134.451 52.3681 134.759 50.9381 135.468 48.6433C136.125 46.4661 136.651 45.0364 137.046 44.3541C137.788 44.2315 139.039 44.4422 140.798 44.9862C142.404 45.483 143.575 45.9791 144.31 46.4746ZM144.878 19.5967C144.497 18.3894 143.594 17.4316 142.171 16.7232C140.777 15.9737 139.444 15.704 138.172 15.9141C135.24 16.3986 132.533 19.4588 130.053 25.0948C133.339 23.8985 138.281 22.0658 144.878 19.5967Z" fill="black"/>
<path d="M186.128 35.2095L180.128 28.2095L167.128 46.7095C165.128 49.9095 159.294 52.7095 156.628 53.7095C143.827 57.7095 132.294 60.0428 128.128 60.7095L126.128 61.7095L102.128 97.7095L108.128 66.7095L15.6275 90.7095L13.6275 105.709L90.6275 84.7095V85.7095L82.6275 128.709L95.6275 131.709L133.628 73.2095H134.628C142.628 71.7095 155.128 67.7095 163.128 64.2095C169.527 61.4095 174.128 56.0428 175.628 53.7095L186.128 35.2095Z" fill="#00C2FF" fill-opacity="0.5"/>
<path d="M192.128 35.2095L186.128 28.2095L173.128 46.7095C171.128 49.9095 165.294 52.7095 162.628 53.7095C149.827 57.7095 138.294 60.0428 134.128 60.7095L132.128 61.7095L108.128 97.7095L114.128 66.7095L21.6275 90.7095L19.6275 105.709L96.6275 84.7095V85.7095L88.6275 128.709L101.628 131.709L139.628 73.2095H140.628C148.628 71.7095 161.128 67.7095 169.128 64.2095C175.527 61.4095 180.128 56.0428 181.628 53.7095L192.128 35.2095Z" fill="#FF00D6" fill-opacity="0.5"/>
<path d="M189.5 35L183.5 28L170.5 46.5C168.5 49.7 162.667 52.5 160 53.5C147.2 57.5 135.667 59.8333 131.5 60.5L129.5 61.5L105.5 97.5L111.5 66.5L19 90.5L17 105.5L94 84.5V85.5L86 128.5L99 131.5L137 73H138C146 71.5 158.5 67.5 166.5 64C172.9 61.2 177.5 55.8333 179 53.5L189.5 35Z" fill="#090000"/>
</svg>
