<svg width="61" height="81" viewBox="0 0 61 81" fill="none" xmlns="http://www.w3.org/2000/svg">
<path d="M10.5117 5.79199C12.5885 4.75358 14.7012 3.8584 16.8496 3.10645C18.998 2.35449 21.2181 1.76367 23.5098 1.33398C24.7988 1.11914 26.1237 0.940104 27.4844 0.796875C28.8451 0.653646 30.2057 0.582031 31.5664 0.582031C33.3568 0.582031 35.1113 0.72526 36.8301 1.01172C38.5846 1.26237 40.3213 1.70996 42.04 2.35449C45.4059 3.71517 48.1094 5.8457 50.1504 8.74609C52.2272 11.6465 53.2656 15.4062 53.2656 20.0254C53.2656 23.4271 52.7106 26.3096 51.6006 28.6729C50.4906 31.0003 48.915 33.0413 46.874 34.7959C44.8688 36.5505 42.416 38.1081 39.5156 39.4688C36.651 40.7936 33.4463 42.1364 29.9014 43.4971V56.334L22.4355 58.4824L19.2129 39.6836C23.0085 38.0365 26.4102 36.5684 29.418 35.2793C32.4258 33.9902 34.9681 32.6475 37.0449 31.251C39.1576 29.8187 40.7689 28.2074 41.8789 26.417C43.0247 24.5908 43.5977 22.2992 43.5977 19.542C43.5977 17.501 43.1859 15.7643 42.3623 14.332C41.5745 12.8997 40.5182 11.7539 39.1934 10.8945C38.0833 10.1784 36.848 9.67708 35.4873 9.39062C34.1266 9.10417 32.6943 8.96094 31.1904 8.96094C28.0752 8.96094 24.9779 9.46224 21.8984 10.4648C18.8548 11.4316 16.0977 12.5596 13.627 13.8486L10.5117 5.79199ZM26.0879 66.9688C26.9831 66.9688 27.8245 67.1478 28.6123 67.5059C29.4359 67.8281 30.1341 68.2936 30.707 68.9023C31.3158 69.4753 31.7812 70.1735 32.1035 70.9971C32.4616 71.7848 32.6406 72.6263 32.6406 73.5215C32.6406 74.3809 32.4616 75.2044 32.1035 75.9922C31.7812 76.7799 31.3158 77.4782 30.707 78.0869C30.1341 78.6956 29.4359 79.179 28.6123 79.5371C27.8245 79.8952 26.9831 80.0742 26.0879 80.0742C25.2285 80.0742 24.387 79.8952 23.5635 79.5371C22.7757 79.2148 22.0775 78.7673 21.4688 78.1943C20.86 77.5856 20.3766 76.8874 20.0186 76.0996C19.6605 75.276 19.4814 74.4167 19.4814 73.5215C19.4814 72.6263 19.6605 71.7848 20.0186 70.9971C20.3766 70.1735 20.8421 69.4753 21.415 68.9023C22.0238 68.2936 22.722 67.8281 23.5098 67.5059C24.3333 67.1478 25.1927 66.9688 26.0879 66.9688Z" fill="#FF00D6" fill-opacity="0.5"/>
<path d="M4.51172 5.79199C6.58854 4.75358 8.70117 3.8584 10.8496 3.10645C12.998 2.35449 15.2181 1.76367 17.5098 1.33398C18.7988 1.11914 20.1237 0.940104 21.4844 0.796875C22.8451 0.653646 24.2057 0.582031 25.5664 0.582031C27.3568 0.582031 29.1113 0.72526 30.8301 1.01172C32.5846 1.26237 34.3213 1.70996 36.04 2.35449C39.4059 3.71517 42.1094 5.8457 44.1504 8.74609C46.2272 11.6465 47.2656 15.4062 47.2656 20.0254C47.2656 23.4271 46.7106 26.3096 45.6006 28.6729C44.4906 31.0003 42.915 33.0413 40.874 34.7959C38.8688 36.5505 36.416 38.1081 33.5156 39.4688C30.651 40.7936 27.4463 42.1364 23.9014 43.4971V56.334L16.4355 58.4824L13.2129 39.6836C17.0085 38.0365 20.4102 36.5684 23.418 35.2793C26.4258 33.9902 28.9681 32.6475 31.0449 31.251C33.1576 29.8187 34.7689 28.2074 35.8789 26.417C37.0247 24.5908 37.5977 22.2992 37.5977 19.542C37.5977 17.501 37.1859 15.7643 36.3623 14.332C35.5745 12.8997 34.5182 11.7539 33.1934 10.8945C32.0833 10.1784 30.848 9.67708 29.4873 9.39062C28.1266 9.10417 26.6943 8.96094 25.1904 8.96094C22.0752 8.96094 18.9779 9.46224 15.8984 10.4648C12.8548 11.4316 10.0977 12.5596 7.62695 13.8486L4.51172 5.79199ZM20.0879 66.9688C20.9831 66.9688 21.8245 67.1478 22.6123 67.5059C23.4359 67.8281 24.1341 68.2936 24.707 68.9023C25.3158 69.4753 25.7812 70.1735 26.1035 70.9971C26.4616 71.7848 26.6406 72.6263 26.6406 73.5215C26.6406 74.3809 26.4616 75.2044 26.1035 75.9922C25.7812 76.7799 25.3158 77.4782 24.707 78.0869C24.1341 78.6956 23.4359 79.179 22.6123 79.5371C21.8245 79.8952 20.9831 80.0742 20.0879 80.0742C19.2285 80.0742 18.387 79.8952 17.5635 79.5371C16.7757 79.2148 16.0775 78.7673 15.4688 78.1943C14.86 77.5856 14.3766 76.8874 14.0186 76.0996C13.6605 75.276 13.4814 74.4167 13.4814 73.5215C13.4814 72.6263 13.6605 71.7848 14.0186 70.9971C14.3766 70.1735 14.8421 69.4753 15.415 68.9023C16.0238 68.2936 16.722 67.8281 17.5098 67.5059C18.3333 67.1478 19.1927 66.9688 20.0879 66.9688Z" fill="#00C2FF" fill-opacity="0.5"/>
<path d="M7.51172 5.79199C9.58854 4.75358 11.7012 3.8584 13.8496 3.10645C15.998 2.35449 18.2181 1.76367 20.5098 1.33398C21.7988 1.11914 23.1237 0.940104 24.4844 0.796875C25.8451 0.653646 27.2057 0.582031 28.5664 0.582031C30.3568 0.582031 32.1113 0.72526 33.8301 1.01172C35.5846 1.26237 37.3213 1.70996 39.04 2.35449C42.4059 3.71517 45.1094 5.8457 47.1504 8.74609C49.2272 11.6465 50.2656 15.4062 50.2656 20.0254C50.2656 23.4271 49.7106 26.3096 48.6006 28.6729C47.4906 31.0003 45.915 33.0413 43.874 34.7959C41.8688 36.5505 39.416 38.1081 36.5156 39.4688C33.651 40.7936 30.4463 42.1364 26.9014 43.4971V56.334L19.4355 58.4824L16.2129 39.6836C20.0085 38.0365 23.4102 36.5684 26.418 35.2793C29.4258 33.9902 31.9681 32.6475 34.0449 31.251C36.1576 29.8187 37.7689 28.2074 38.8789 26.417C40.0247 24.5908 40.5977 22.2992 40.5977 19.542C40.5977 17.501 40.1859 15.7643 39.3623 14.332C38.5745 12.8997 37.5182 11.7539 36.1934 10.8945C35.0833 10.1784 33.848 9.67708 32.4873 9.39062C31.1266 9.10417 29.6943 8.96094 28.1904 8.96094C25.0752 8.96094 21.9779 9.46224 18.8984 10.4648C15.8548 11.4316 13.0977 12.5596 10.627 13.8486L7.51172 5.79199ZM23.0879 66.9688C23.9831 66.9688 24.8245 67.1478 25.6123 67.5059C26.4359 67.8281 27.1341 68.2936 27.707 68.9023C28.3158 69.4753 28.7812 70.1735 29.1035 70.9971C29.4616 71.7848 29.6406 72.6263 29.6406 73.5215C29.6406 74.3809 29.4616 75.2044 29.1035 75.9922C28.7812 76.7799 28.3158 77.4782 27.707 78.0869C27.1341 78.6956 26.4359 79.179 25.6123 79.5371C24.8245 79.8952 23.9831 80.0742 23.0879 80.0742C22.2285 80.0742 21.387 79.8952 20.5635 79.5371C19.7757 79.2148 19.0775 78.7673 18.4688 78.1943C17.86 77.5856 17.3766 76.8874 17.0186 76.0996C16.6605 75.276 16.4814 74.4167 16.4814 73.5215C16.4814 72.6263 16.6605 71.7848 17.0186 70.9971C17.3766 70.1735 17.8421 69.4753 18.415 68.9023C19.0238 68.2936 19.722 67.8281 20.5098 67.5059C21.3333 67.1478 22.1927 66.9688 23.0879 66.9688Z" fill="black"/>
</svg>
